<svg width="122" height="92" viewBox="0 0 122 92" fill="none" xmlns="http://www.w3.org/2000/svg">
<g clip-path="url(#clip0_827_1383)">
<rect width="78.3451" height="110.097" rx="4.83186" fill="#8C64FF"/>
<path d="M48.6636 0H73.5131C76.1817 0 78.345 2.1633 78.345 4.83186V105.265C78.345 107.934 76.1817 110.097 73.5131 110.097H48.6636V0Z" fill="#111111"/>
<path opacity="0.5" d="M68.0185 35.3554L64.153 35.3603L64.1522 34.7253L68.0177 34.7203L68.0185 35.3554ZM68.0179 34.9191L67.4381 34.9199L67.4353 32.7552L68.0152 32.7545L68.0179 34.9191ZM66.3226 34.9213L65.7649 34.922L65.7624 32.9451L66.3201 32.9444L66.3226 34.9213ZM64.7323 34.9234L64.1525 34.9241L64.1497 32.787L64.7295 32.7863L64.7323 34.9234ZM68.0123 30.5023L66.8922 31.2658L66.793 31.3764L65.3641 32.4053L65.3631 31.6709L66.3452 30.9904L66.4389 30.8853L68.0113 29.7734L68.0123 30.5023ZM68.0148 32.4516L66.5279 31.3822L66.9637 31.0282L68.0139 31.7448L68.0148 32.4516ZM66.7812 30.8297L66.351 31.1892L65.3617 30.5278L65.3608 29.8265L66.7812 30.8297ZM68.0642 27.9522C68.0645 28.1547 68.0224 28.3351 67.9379 28.4935C67.8497 28.6519 67.7303 28.7772 67.5794 28.8695C67.4286 28.958 67.2575 29.0024 67.066 29.0027L66.304 29.0036C66.1126 29.0039 65.9413 28.9581 65.7903 28.8662C65.6392 28.7744 65.5212 28.6494 65.4364 28.4912C65.3478 28.333 65.3034 28.1545 65.3031 27.9557C65.3028 27.7164 65.3651 27.501 65.4901 27.3094C65.6113 27.1141 65.7768 26.9611 65.9865 26.8504C66.1925 26.736 66.4262 26.6787 66.6876 26.6783C66.9453 26.678 67.1791 26.7348 67.3891 26.8486C67.5954 26.9588 67.7594 27.1114 67.8811 27.3063C68.0029 27.4976 68.0639 27.7129 68.0642 27.9522ZM69.1152 29.37L65.3602 29.3748L65.3594 28.7674L66.0718 28.7665L66.718 28.8706L67.3584 28.7648L69.1144 28.7626L69.1152 29.37ZM67.49 28.0523C67.4898 27.9051 67.4565 27.7762 67.3901 27.6659C67.32 27.5519 67.2242 27.4636 67.1026 27.4012C66.9811 27.3351 66.8411 27.3021 66.6828 27.3023C66.5245 27.3025 66.3847 27.3359 66.2633 27.4023C66.1419 27.465 66.0481 27.5535 65.982 27.6677C65.9122 27.7782 65.8774 27.9071 65.8776 28.0544C65.8778 28.2016 65.9129 28.3323 65.983 28.4463C66.0494 28.5604 66.1434 28.6486 66.265 28.711C66.3865 28.7734 66.5265 28.8046 66.6848 28.8044C66.8431 28.8041 66.9829 28.7727 67.1043 28.7099C67.2257 28.6472 67.3213 28.5587 67.3911 28.4445C67.4573 28.3303 67.4902 28.1996 67.49 28.0523ZM68.0614 25.7595C68.0615 25.8773 68.023 25.9749 67.9458 26.0523C67.8649 26.126 67.7674 26.163 67.6533 26.1631C67.5355 26.1633 67.4379 26.1266 67.3605 26.053C67.283 25.9758 67.2443 25.8783 67.2441 25.7605C67.244 25.6427 67.2825 25.5469 67.3597 25.4732C67.4369 25.3958 67.5344 25.357 67.6522 25.3569C67.7664 25.3567 67.864 25.3953 67.945 25.4725C68.0225 25.546 68.0612 25.6417 68.0614 25.7595ZM66.355 25.7617C66.3552 25.8795 66.3167 25.9771 66.2395 26.0545C66.1586 26.1282 66.0611 26.1651 65.9469 26.1653C65.8291 26.1654 65.7315 26.1288 65.6541 26.0552C65.5767 25.978 65.5379 25.8805 65.5378 25.7627C65.5376 25.6449 65.5762 25.5491 65.6534 25.4754C65.7306 25.398 65.8281 25.3592 65.9459 25.3591C66.06 25.3589 66.1576 25.3974 66.2387 25.4747C66.3161 25.5482 66.3549 25.6438 66.355 25.7617Z" fill="white"/>
<path d="M68.0719 21.1883C68.0723 21.4791 67.9916 21.7461 67.83 21.9893C67.6646 22.2288 67.4329 22.4205 67.1349 22.5645C66.8369 22.7084 66.4854 22.7807 66.0805 22.7812C65.6755 22.7817 65.3257 22.7122 65.031 22.5727C64.7326 22.4295 64.5023 22.2384 64.34 21.9993C64.1777 21.7602 64.0964 21.4952 64.096 21.2044C64.0956 20.9099 64.1763 20.6429 64.338 20.4034C64.4996 20.1639 64.7295 19.974 65.0275 19.8337C65.3218 19.6898 65.6733 19.6175 66.0819 19.617C66.4869 19.6165 66.8386 19.6878 67.1369 19.831C67.4353 19.9705 67.6656 20.1598 67.8279 20.3989C67.9902 20.6343 68.0715 20.8974 68.0719 21.1883ZM67.4755 21.2001C67.4753 21.0086 67.4235 20.843 67.3203 20.7033C67.217 20.5635 67.0623 20.4551 66.856 20.3781C66.6497 20.2973 66.3902 20.2572 66.0772 20.2576C65.768 20.258 65.5104 20.2988 65.3043 20.3801C65.0982 20.4576 64.9456 20.5683 64.8464 20.712C64.7435 20.852 64.6922 21.0159 64.6924 21.2036C64.6926 21.3914 64.7444 21.557 64.8477 21.7004C64.9472 21.8402 65.1002 21.9486 65.3064 22.0256C65.509 22.1027 65.7667 22.141 66.0797 22.1406C66.3926 22.1402 66.6521 22.1012 66.8581 22.0237C67.0642 21.9461 67.2187 21.8373 67.3216 21.6973C67.4245 21.5535 67.4758 21.3878 67.4755 21.2001ZM68.0134 18.6301L66.4271 17.5001L66.2888 17.2738C66.3698 17.3106 66.4417 17.3583 66.5043 17.4171C66.567 17.4723 66.6149 17.5459 66.6482 17.6378C66.6814 17.7298 66.6981 17.8476 66.6983 17.9912C66.6986 18.2121 66.6473 18.4146 66.5445 18.5988C66.438 18.783 66.2909 18.9305 66.1033 19.0412C65.9157 19.1518 65.6985 19.2073 65.4519 19.2077C65.2016 19.208 64.9732 19.1475 64.7669 19.0263C64.5606 18.9014 64.3966 18.736 64.2748 18.53C64.1531 18.324 64.092 18.0939 64.0917 17.8399C64.0914 17.5822 64.1518 17.3502 64.273 17.1439C64.3906 16.9376 64.5505 16.7754 64.7528 16.6573C64.9515 16.5356 65.1759 16.4746 65.4263 16.4742C65.7797 16.4738 66.137 16.5967 66.4981 16.8429L68.0125 17.8956L68.0134 18.6301ZM66.2011 17.8372C66.201 17.6973 66.1677 17.5722 66.1013 17.4618C66.0348 17.3515 65.9445 17.2651 65.8303 17.2026C65.7161 17.1402 65.5891 17.1091 65.4492 17.1093C65.3019 17.1095 65.1713 17.1409 65.0572 17.2036C64.9432 17.2664 64.8531 17.353 64.787 17.4635C64.7209 17.5741 64.6879 17.6993 64.6881 17.8392C64.6883 17.9791 64.7215 18.1042 64.788 18.2145C64.8544 18.3249 64.9447 18.4131 65.0589 18.4793C65.1731 18.5417 65.3038 18.5728 65.4511 18.5726C65.5946 18.5724 65.7235 18.541 65.8375 18.4782C65.9479 18.4118 66.0361 18.3234 66.1022 18.2128C66.1683 18.0986 66.2013 17.9734 66.2011 17.8372ZM68.2312 16.2358L63.922 14.6952L63.9212 14.1264L68.2305 15.667L68.2312 16.2358ZM67.6318 13.9153L66.117 12.4925C65.9916 12.3749 65.8792 12.2793 65.7797 12.2058C65.6802 12.1323 65.5863 12.079 65.4979 12.046C65.4095 12.013 65.3193 11.9965 65.2273 11.9967C65.0542 11.9969 64.9199 12.0541 64.8244 12.1684C64.7251 12.2789 64.6756 12.4207 64.6758 12.5938C64.676 12.7778 64.7223 12.9398 64.8145 13.0795C64.9067 13.2193 65.0504 13.3443 65.2457 13.4545L64.8818 13.8967C64.6202 13.7461 64.423 13.5605 64.2902 13.3397C64.1537 13.119 64.0853 12.8633 64.0849 12.5724C64.0846 12.3331 64.1322 12.1232 64.2277 11.9427C64.3232 11.7622 64.4574 11.6221 64.6303 11.5225C64.7995 11.4229 64.9964 11.373 65.2209 11.3727C65.3829 11.3725 65.5284 11.3925 65.6573 11.4328C65.7825 11.4695 65.9096 11.5338 66.0385 11.6256C66.1638 11.7175 66.3112 11.8443 66.4808 12.0061L67.6142 13.098L67.6318 13.9153ZM68.0074 13.9148L67.6318 13.9153L67.4379 13.3688L67.4352 11.2925L68.004 11.2918L68.0074 13.9148ZM68.0572 9.71782C68.0575 9.98656 68.0118 10.2259 67.92 10.4359C67.8246 10.6458 67.6868 10.8227 67.5066 10.9665L67.0753 10.5364C67.193 10.4589 67.2867 10.3502 67.3565 10.2102C67.4263 10.0665 67.461 9.90634 67.4608 9.72963C67.4606 9.56765 67.431 9.42595 67.3719 9.30454C67.3128 9.18313 67.228 9.08752 67.1175 9.01772C67.007 8.94791 66.8762 8.91311 66.7253 8.9133C66.567 8.9135 66.4364 8.94864 66.3334 9.01872C66.2267 9.08513 66.1477 9.17542 66.0963 9.28961C66.0412 9.40013 66.0137 9.51981 66.0139 9.64866C66.0141 9.79591 66.0308 9.92842 66.0641 10.0462C66.0974 10.1603 66.1564 10.2725 66.2413 10.3828L65.8436 10.3668C65.7663 10.3079 65.7036 10.2399 65.6556 10.1627C65.604 10.0854 65.5652 9.99529 65.5393 9.89224C65.5134 9.78919 65.5004 9.66772 65.5002 9.52783C65.4998 9.25541 65.5566 9.02709 65.6705 8.84287C65.7844 8.65497 65.937 8.51304 66.1283 8.41708C66.3159 8.32112 66.5257 8.27299 66.7576 8.27269C67.008 8.27237 67.2308 8.33467 67.426 8.45958C67.6213 8.58082 67.7761 8.74997 67.8905 8.96702C68.0013 9.18408 68.0568 9.43435 68.0572 9.71782ZM66.2413 10.3828L65.8938 10.7311L64.1376 10.5622L64.1368 9.9824L65.9649 10.1788L66.2413 10.3828ZM64.7062 10.451L64.1376 10.5622L64.1349 8.49143L64.7037 8.49069L64.7062 10.451Z" fill="white"/>
<rect x="43.4868" y="20.0177" width="78.3451" height="110.097" rx="4.83186" fill="#F8FF50"/>
<path d="M92.1504 20.0177H117C119.669 20.0177 121.832 22.181 121.832 24.8496V125.283C121.832 127.952 119.669 130.115 117 130.115H92.1504V20.0177Z" fill="#111111"/>
<g filter="url(#filter0_f_827_1383)">
<circle cx="53.668" cy="40.208" r="7.07522" fill="#1C4E80"/>
</g>
<path d="M85.3216 126.675C85.3216 127.133 85.1974 127.547 84.9489 127.917C84.7004 128.287 84.3497 128.583 83.8969 128.804C83.4441 129.019 82.9167 129.127 82.3148 129.127C81.7129 129.127 81.1883 129.019 80.741 128.804C80.2937 128.588 79.9458 128.298 79.6973 127.934C79.4488 127.564 79.3246 127.152 79.3246 126.7C79.3246 126.236 79.4488 125.822 79.6973 125.457C79.9458 125.087 80.2965 124.795 80.7493 124.579C81.1966 124.364 81.7239 124.256 82.3314 124.256C82.9333 124.256 83.4606 124.364 83.9135 124.579C84.3608 124.795 84.7086 125.084 84.9571 125.449C85.2001 125.813 85.3216 126.222 85.3216 126.675ZM84.3028 126.691C84.3028 126.426 84.2282 126.197 84.0791 126.004C83.93 125.811 83.7091 125.661 83.4165 125.557C83.1238 125.446 82.7593 125.391 82.3231 125.391C81.8868 125.391 81.5224 125.446 81.2297 125.557C80.937 125.661 80.7189 125.813 80.5753 126.012C80.4262 126.205 80.3517 126.435 80.3517 126.7C80.3517 126.959 80.4262 127.186 80.5753 127.379C80.7189 127.572 80.937 127.724 81.2297 127.834C81.5169 127.939 81.8786 127.992 82.3148 127.992C82.7566 127.992 83.1238 127.939 83.4165 127.834C83.7091 127.724 83.93 127.572 84.0791 127.379C84.2282 127.186 84.3028 126.956 84.3028 126.691ZM85.3216 121.207C85.3216 121.665 85.1974 122.079 84.9489 122.449C84.7004 122.819 84.3497 123.114 83.8969 123.335C83.4441 123.551 82.9167 123.658 82.3148 123.658C81.7129 123.658 81.1883 123.551 80.741 123.335C80.2937 123.12 79.9458 122.83 79.6973 122.466C79.4488 122.096 79.3246 121.684 79.3246 121.231C79.3246 120.768 79.4488 120.353 79.6973 119.989C79.9458 119.619 80.2965 119.326 80.7493 119.111C81.1966 118.896 81.7239 118.788 82.3314 118.788C82.9333 118.788 83.4606 118.896 83.9135 119.111C84.3608 119.326 84.7086 119.616 84.9571 119.981C85.2001 120.345 85.3216 120.754 85.3216 121.207ZM84.3028 121.223C84.3028 120.958 84.2282 120.729 84.0791 120.536C83.93 120.342 83.7091 120.193 83.4165 120.088C83.1238 119.978 82.7593 119.923 82.3231 119.923C81.8868 119.923 81.5224 119.978 81.2297 120.088C80.937 120.193 80.7189 120.345 80.5753 120.544C80.4262 120.737 80.3517 120.966 80.3517 121.231C80.3517 121.491 80.4262 121.717 80.5753 121.911C80.7189 122.104 80.937 122.256 81.2297 122.366C81.5169 122.471 81.8786 122.524 82.3148 122.524C82.7566 122.524 83.1238 122.471 83.4165 122.366C83.7091 122.256 83.93 122.104 84.0791 121.911C84.2282 121.717 84.3028 121.488 84.3028 121.223ZM85.3216 115.738C85.3216 116.197 85.1974 116.611 84.9489 116.981C84.7004 117.351 84.3497 117.646 83.8969 117.867C83.4441 118.083 82.9167 118.19 82.3148 118.19C81.7129 118.19 81.1883 118.083 80.741 117.867C80.2937 117.652 79.9458 117.362 79.6973 116.997C79.4488 116.627 79.3246 116.216 79.3246 115.763C79.3246 115.299 79.4488 114.885 79.6973 114.521C79.9458 114.151 80.2965 113.858 80.7493 113.643C81.1966 113.427 81.7239 113.32 82.3314 113.32C82.9333 113.32 83.4606 113.427 83.9135 113.643C84.3608 113.858 84.7086 114.148 84.9571 114.512C85.2001 114.877 85.3216 115.286 85.3216 115.738ZM84.3028 115.755C84.3028 115.49 84.2282 115.261 84.0791 115.067C83.93 114.874 83.7091 114.725 83.4165 114.62C83.1238 114.51 82.7593 114.454 82.3231 114.454C81.8868 114.454 81.5224 114.51 81.2297 114.62C80.937 114.725 80.7189 114.877 80.5753 115.076C80.4262 115.269 80.3517 115.498 80.3517 115.763C80.3517 116.023 80.4262 116.249 80.5753 116.442C80.7189 116.636 80.937 116.788 81.2297 116.898C81.5169 117.003 81.8786 117.055 82.3148 117.055C82.7566 117.055 83.1238 117.003 83.4165 116.898C83.7091 116.788 83.93 116.636 84.0791 116.442C84.2282 116.249 84.3028 116.02 84.3028 115.755ZM85.3216 110.27C85.3216 110.729 85.1974 111.143 84.9489 111.513C84.7004 111.883 84.3497 112.178 83.8969 112.399C83.4441 112.614 82.9167 112.722 82.3148 112.722C81.7129 112.722 81.1883 112.614 80.741 112.399C80.2937 112.184 79.9458 111.894 79.6973 111.529C79.4488 111.159 79.3246 110.748 79.3246 110.295C79.3246 109.831 79.4488 109.417 79.6973 109.053C79.9458 108.683 80.2965 108.39 80.7493 108.175C81.1966 107.959 81.7239 107.852 82.3314 107.852C82.9333 107.852 83.4606 107.959 83.9135 108.175C84.3608 108.39 84.7086 108.68 84.9571 109.044C85.2001 109.409 85.3216 109.817 85.3216 110.27ZM84.3028 110.287C84.3028 110.022 84.2282 109.793 84.0791 109.599C83.93 109.406 83.7091 109.257 83.4165 109.152C83.1238 109.042 82.7593 108.986 82.3231 108.986C81.8868 108.986 81.5224 109.042 81.2297 109.152C80.937 109.257 80.7189 109.409 80.5753 109.608C80.4262 109.801 80.3517 110.03 80.3517 110.295C80.3517 110.555 80.4262 110.781 80.5753 110.974C80.7189 111.168 80.937 111.319 81.2297 111.43C81.5169 111.535 81.8786 111.587 82.3148 111.587C82.7566 111.587 83.1238 111.535 83.4165 111.43C83.7091 111.319 83.93 111.168 84.0791 110.974C84.2282 110.781 84.3028 110.552 84.3028 110.287ZM85.3216 102.014C85.3216 102.428 85.2498 102.787 85.1062 103.09C84.9627 103.389 84.7611 103.623 84.5016 103.795C84.242 103.96 83.9494 104.043 83.6235 104.043C83.353 104.043 83.1072 103.991 82.8863 103.886C82.6655 103.781 82.4805 103.632 82.3314 103.438C82.1768 103.24 82.0691 103.008 82.0083 102.743L82.2817 102.767C82.2265 102.988 82.1298 103.176 81.9918 103.331C81.8537 103.485 81.6908 103.601 81.5031 103.679C81.3098 103.756 81.111 103.795 80.9067 103.795C80.5919 103.795 80.3158 103.72 80.0783 103.571C79.8409 103.416 79.6559 103.206 79.5234 102.941C79.3908 102.671 79.3246 102.362 79.3246 102.014C79.3246 101.666 79.3908 101.359 79.5234 101.094C79.6559 100.829 79.8409 100.622 80.0783 100.473C80.3158 100.318 80.5919 100.241 80.9067 100.241C81.111 100.241 81.3098 100.28 81.5031 100.357C81.6908 100.434 81.8537 100.55 81.9918 100.705C82.1298 100.854 82.2265 101.042 82.2817 101.268L82.0083 101.293C82.0691 101.022 82.1768 100.791 82.3314 100.597C82.4805 100.404 82.6655 100.255 82.8863 100.15C83.1072 100.045 83.353 99.9926 83.6235 99.9926C83.9494 99.9926 84.242 100.075 84.5016 100.241C84.7611 100.407 84.9627 100.641 85.1062 100.945C85.2498 101.249 85.3216 101.605 85.3216 102.014ZM84.3359 102.014C84.3359 101.831 84.3 101.669 84.2282 101.525C84.1509 101.381 84.046 101.271 83.9135 101.194C83.7809 101.111 83.6318 101.069 83.4662 101.069C83.295 101.069 83.1459 101.111 83.0189 101.194C82.8863 101.271 82.7842 101.381 82.7124 101.525C82.6351 101.669 82.5964 101.831 82.5964 102.014C82.5964 102.201 82.6351 102.367 82.7124 102.511C82.7842 102.649 82.8863 102.759 83.0189 102.842C83.1459 102.925 83.295 102.966 83.4662 102.966C83.6318 102.966 83.7809 102.925 83.9135 102.842C84.046 102.759 84.1509 102.649 84.2282 102.511C84.3 102.367 84.3359 102.201 84.3359 102.014ZM81.7433 102.014C81.7433 101.798 81.6742 101.622 81.5362 101.484C81.3981 101.345 81.2214 101.276 81.0061 101.276C80.7852 101.276 80.6057 101.345 80.4677 101.484C80.3296 101.622 80.2606 101.798 80.2606 102.014C80.2606 102.229 80.3296 102.409 80.4677 102.552C80.6057 102.69 80.7824 102.759 80.9978 102.759C81.2187 102.759 81.3981 102.69 81.5362 102.552C81.6742 102.409 81.7433 102.229 81.7433 102.014ZM85.2388 98.7596L82.7704 96.987L82.6461 96.5811C82.7731 96.6474 82.8863 96.7247 82.9857 96.8131C83.0796 96.8959 83.1514 97.0036 83.2011 97.1361C83.2508 97.2686 83.2757 97.4426 83.2757 97.6579C83.2757 98.0003 83.1956 98.3151 83.0354 98.6022C82.8698 98.8839 82.6434 99.1103 82.3562 99.2815C82.0691 99.4526 81.7405 99.5382 81.3705 99.5382C80.995 99.5382 80.6526 99.4444 80.3434 99.2566C80.0286 99.0688 79.7801 98.8148 79.5979 98.4945C79.4157 98.1743 79.3246 97.8181 79.3246 97.426C79.3246 97.0284 79.4157 96.6722 79.5979 96.3575C79.7801 96.0372 80.0231 95.7859 80.3268 95.6037C80.6306 95.416 80.9702 95.3221 81.3457 95.3221C81.8592 95.3221 82.3783 95.5016 82.9029 95.8605L85.2388 97.4757V98.7596ZM82.4142 97.426C82.4142 97.2327 82.37 97.0616 82.2817 96.9125C82.1933 96.7634 82.0718 96.6474 81.9172 96.5646C81.7571 96.4762 81.5804 96.432 81.3871 96.432C81.1828 96.432 81.0033 96.4762 80.8487 96.5646C80.6941 96.6474 80.5726 96.7634 80.4842 96.9125C80.3903 97.0616 80.3434 97.2327 80.3434 97.426C80.3434 97.6193 80.3903 97.7932 80.4842 97.9479C80.5726 98.097 80.6941 98.2157 80.8487 98.304C81.0033 98.3869 81.1828 98.4283 81.3871 98.4283C81.5859 98.4283 81.7626 98.3869 81.9172 98.304C82.0718 98.2157 82.1933 98.0942 82.2817 97.9396C82.37 97.785 82.4142 97.6138 82.4142 97.426ZM85.3216 92.3206C85.3216 92.7789 85.1974 93.1931 84.9489 93.5631C84.7004 93.9331 84.3497 94.2285 83.8969 94.4494C83.4441 94.6647 82.9167 94.7724 82.3148 94.7724C81.7129 94.7724 81.1883 94.6647 80.741 94.4494C80.2937 94.234 79.9458 93.9441 79.6973 93.5796C79.4488 93.2097 79.3246 92.7983 79.3246 92.3454C79.3246 91.8816 79.4488 91.4674 79.6973 91.103C79.9458 90.733 80.2965 90.4403 80.7493 90.2249C81.1966 90.0096 81.7239 89.9019 82.3314 89.9019C82.9333 89.9019 83.4606 90.0096 83.9135 90.2249C84.3608 90.4403 84.7086 90.7302 84.9571 91.0947C85.2001 91.4591 85.3216 91.8678 85.3216 92.3206ZM84.3028 92.3372C84.3028 92.0721 84.2282 91.8429 84.0791 91.6497C83.93 91.4564 83.7091 91.3073 83.4165 91.2024C83.1238 91.0919 82.7593 91.0367 82.3231 91.0367C81.8868 91.0367 81.5224 91.0919 81.2297 91.2024C80.937 91.3073 80.7189 91.4591 80.5753 91.6579C80.4262 91.8512 80.3517 92.0804 80.3517 92.3454C80.3517 92.605 80.4262 92.8314 80.5753 93.0247C80.7189 93.2179 80.937 93.3698 81.2297 93.4802C81.5169 93.5852 81.8786 93.6376 82.3148 93.6376C82.7566 93.6376 83.1238 93.5852 83.4165 93.4802C83.7091 93.3698 83.93 93.2179 84.0791 93.0247C84.2282 92.8314 84.3028 92.6022 84.3028 92.3372ZM85.3216 86.8524C85.3216 87.3107 85.1974 87.7249 84.9489 88.0949C84.7004 88.4649 84.3497 88.7603 83.8969 88.9812C83.4441 89.1965 82.9167 89.3042 82.3148 89.3042C81.7129 89.3042 81.1883 89.1965 80.741 88.9812C80.2937 88.7658 79.9458 88.4759 79.6973 88.1114C79.4488 87.7415 79.3246 87.3301 79.3246 86.8772C79.3246 86.4134 79.4488 85.9992 79.6973 85.6348C79.9458 85.2648 80.2965 84.9721 80.7493 84.7568C81.1966 84.5414 81.7239 84.4337 82.3314 84.4337C82.9333 84.4337 83.4606 84.5414 83.9135 84.7568C84.3608 84.9721 84.7086 85.262 84.9571 85.6265C85.2001 85.9909 85.3216 86.3996 85.3216 86.8524ZM84.3028 86.869C84.3028 86.6039 84.2282 86.3747 84.0791 86.1815C83.93 85.9882 83.7091 85.8391 83.4165 85.7342C83.1238 85.6237 82.7593 85.5685 82.3231 85.5685C81.8868 85.5685 81.5224 85.6237 81.2297 85.7342C80.937 85.8391 80.7189 85.9909 80.5753 86.1897C80.4262 86.383 80.3517 86.6122 80.3517 86.8772C80.3517 87.1368 80.4262 87.3632 80.5753 87.5565C80.7189 87.7497 80.937 87.9016 81.2297 88.012C81.5169 88.117 81.8786 88.1694 82.3148 88.1694C82.7566 88.1694 83.1238 88.117 83.4165 88.012C83.7091 87.9016 83.93 87.7497 84.0791 87.5565C84.2282 87.3632 84.3028 87.134 84.3028 86.869ZM85.3216 78.1486C85.3216 78.6069 85.1974 79.0211 84.9489 79.3911C84.7004 79.761 84.3497 80.0565 83.8969 80.2774C83.4441 80.4927 82.9167 80.6004 82.3148 80.6004C81.7129 80.6004 81.1883 80.4927 80.741 80.2774C80.2937 80.062 79.9458 79.7721 79.6973 79.4076C79.4488 79.0376 79.3246 78.6262 79.3246 78.1734C79.3246 77.7096 79.4488 77.2954 79.6973 76.931C79.9458 76.561 80.2965 76.2683 80.7493 76.0529C81.1966 75.8376 81.7239 75.7299 82.3314 75.7299C82.9333 75.7299 83.4606 75.8376 83.9135 76.0529C84.3608 76.2683 84.7086 76.5582 84.9571 76.9227C85.2001 77.2871 85.3216 77.6958 85.3216 78.1486ZM84.3028 78.1652C84.3028 77.9001 84.2282 77.6709 84.0791 77.4776C83.93 77.2844 83.7091 77.1353 83.4165 77.0304C83.1238 76.9199 82.7593 76.8647 82.3231 76.8647C81.8868 76.8647 81.5224 76.9199 81.2297 77.0304C80.937 77.1353 80.7189 77.2871 80.5753 77.4859C80.4262 77.6792 80.3517 77.9084 80.3517 78.1734C80.3517 78.433 80.4262 78.6594 80.5753 78.8527C80.7189 79.0459 80.937 79.1978 81.2297 79.3082C81.5169 79.4132 81.8786 79.4656 82.3148 79.4656C82.7566 79.4656 83.1238 79.4132 83.4165 79.3082C83.7091 79.1978 83.93 79.0459 84.0791 78.8527C84.2282 78.6594 84.3028 78.4302 84.3028 78.1652ZM85.3216 72.6804C85.3216 73.1387 85.1974 73.5529 84.9489 73.9229C84.7004 74.2928 84.3497 74.5883 83.8969 74.8092C83.4441 75.0245 82.9167 75.1322 82.3148 75.1322C81.7129 75.1322 81.1883 75.0245 80.741 74.8092C80.2937 74.5938 79.9458 74.3039 79.6973 73.9394C79.4488 73.5694 79.3246 73.1581 79.3246 72.7052C79.3246 72.2414 79.4488 71.8272 79.6973 71.4628C79.9458 71.0928 80.2965 70.8001 80.7493 70.5847C81.1966 70.3694 81.7239 70.2617 82.3314 70.2617C82.9333 70.2617 83.4606 70.3694 83.9135 70.5847C84.3608 70.8001 84.7086 71.09 84.9571 71.4545C85.2001 71.8189 85.3216 72.2276 85.3216 72.6804ZM84.3028 72.697C84.3028 72.4319 84.2282 72.2027 84.0791 72.0094C83.93 71.8162 83.7091 71.6671 83.4165 71.5622C83.1238 71.4517 82.7593 71.3965 82.3231 71.3965C81.8868 71.3965 81.5224 71.4517 81.2297 71.5622C80.937 71.6671 80.7189 71.8189 80.5753 72.0177C80.4262 72.211 80.3517 72.4402 80.3517 72.7052C80.3517 72.9648 80.4262 73.1912 80.5753 73.3845C80.7189 73.5777 80.937 73.7296 81.2297 73.84C81.5169 73.945 81.8786 73.9974 82.3148 73.9974C82.7566 73.9974 83.1238 73.945 83.4165 73.84C83.7091 73.7296 83.93 73.5777 84.0791 73.3845C84.2282 73.1912 84.3028 72.962 84.3028 72.697ZM85.3216 67.2122C85.3216 67.6705 85.1974 68.0847 84.9489 68.4547C84.7004 68.8247 84.3497 69.1201 83.8969 69.341C83.4441 69.5563 82.9167 69.664 82.3148 69.664C81.7129 69.664 81.1883 69.5563 80.741 69.341C80.2937 69.1256 79.9458 68.8357 79.6973 68.4712C79.4488 68.1013 79.3246 67.6899 79.3246 67.237C79.3246 66.7732 79.4488 66.359 79.6973 65.9946C79.9458 65.6246 80.2965 65.3319 80.7493 65.1165C81.1966 64.9012 81.7239 64.7935 82.3314 64.7935C82.9333 64.7935 83.4606 64.9012 83.9135 65.1165C84.3608 65.3319 84.7086 65.6218 84.9571 65.9863C85.2001 66.3507 85.3216 66.7594 85.3216 67.2122ZM84.3028 67.2288C84.3028 66.9637 84.2282 66.7345 84.0791 66.5413C83.93 66.348 83.7091 66.1989 83.4165 66.094C83.1238 65.9835 82.7593 65.9283 82.3231 65.9283C81.8868 65.9283 81.5224 65.9835 81.2297 66.094C80.937 66.1989 80.7189 66.3507 80.5753 66.5495C80.4262 66.7428 80.3517 66.972 80.3517 67.237C80.3517 67.4966 80.4262 67.723 80.5753 67.9163C80.7189 68.1095 80.937 68.2614 81.2297 68.3718C81.5169 68.4768 81.8786 68.5292 82.3148 68.5292C82.7566 68.5292 83.1238 68.4768 83.4165 68.3718C83.7091 68.2614 83.93 68.1095 84.0791 67.9163C84.2282 67.723 84.3028 67.4938 84.3028 67.2288ZM85.3216 61.744C85.3216 62.2023 85.1974 62.6165 84.9489 62.9865C84.7004 63.3565 84.3497 63.6519 83.8969 63.8728C83.4441 64.0881 82.9167 64.1958 82.3148 64.1958C81.7129 64.1958 81.1883 64.0881 80.741 63.8728C80.2937 63.6574 79.9458 63.3675 79.6973 63.003C79.4488 62.6331 79.3246 62.2217 79.3246 61.7688C79.3246 61.305 79.4488 60.8908 79.6973 60.5264C79.9458 60.1564 80.2965 59.8637 80.7493 59.6483C81.1966 59.433 81.7239 59.3253 82.3314 59.3253C82.9333 59.3253 83.4606 59.433 83.9135 59.6483C84.3608 59.8637 84.7086 60.1536 84.9571 60.5181C85.2001 60.8825 85.3216 61.2912 85.3216 61.744ZM84.3028 61.7606C84.3028 61.4955 84.2282 61.2663 84.0791 61.0731C83.93 60.8798 83.7091 60.7307 83.4165 60.6258C83.1238 60.5153 82.7593 60.4601 82.3231 60.4601C81.8868 60.4601 81.5224 60.5153 81.2297 60.6258C80.937 60.7307 80.7189 60.8825 80.5753 61.0813C80.4262 61.2746 80.3517 61.5038 80.3517 61.7688C80.3517 62.0284 80.4262 62.2548 80.5753 62.4481C80.7189 62.6413 80.937 62.7932 81.2297 62.9036C81.5169 63.0086 81.8786 63.061 82.3148 63.061C82.7566 63.061 83.1238 63.0086 83.4165 62.9036C83.7091 62.7932 83.93 62.6413 84.0791 62.4481C84.2282 62.2548 84.3028 62.0256 84.3028 61.7606ZM85.3216 53.7194C85.3216 54.1225 85.2526 54.4897 85.1145 54.8211C84.9709 55.1524 84.7666 55.4285 84.5016 55.6494L83.7644 54.9039C83.93 54.7934 84.0626 54.6361 84.162 54.4317C84.2614 54.2219 84.3111 53.9927 84.3111 53.7442C84.3111 53.5178 84.2696 53.3218 84.1868 53.1561C84.104 52.985 83.988 52.8524 83.8389 52.7585C83.6843 52.6591 83.5048 52.6094 83.3005 52.6094C83.0851 52.6094 82.9029 52.6591 82.7538 52.7585C82.6047 52.8524 82.4915 52.9794 82.4142 53.1396C82.3369 53.2997 82.2982 53.4792 82.2982 53.678C82.2982 53.8878 82.3258 54.0783 82.3811 54.2495C82.4308 54.4152 82.5136 54.5753 82.6296 54.7299L81.9172 54.6637C81.8068 54.5588 81.7184 54.4483 81.6521 54.3324C81.5804 54.2164 81.5279 54.0866 81.4948 53.943C81.4561 53.7939 81.4368 53.62 81.4368 53.4212C81.4368 52.996 81.5251 52.6426 81.7018 52.361C81.873 52.0738 82.105 51.8557 82.3976 51.7066C82.6848 51.5575 83.0023 51.4829 83.3502 51.4829C83.7312 51.4829 84.0708 51.5768 84.369 51.7646C84.6672 51.9523 84.9019 52.2146 85.0731 52.5515C85.2388 52.8828 85.3216 53.2721 85.3216 53.7194ZM82.6296 54.7299L82.0994 55.2684L79.4157 55.0033V53.9845L82.1409 54.2827L82.6296 54.7299ZM80.3931 54.8293L79.4157 55.0033V51.806H80.3931V54.8293ZM85.3216 48.4618C85.3216 48.9201 85.1974 49.3343 84.9489 49.7043C84.7004 50.0742 84.3497 50.3697 83.8969 50.5906C83.4441 50.8059 82.9167 50.9136 82.3148 50.9136C81.7129 50.9136 81.1883 50.8059 80.741 50.5906C80.2937 50.3752 79.9458 50.0853 79.6973 49.7208C79.4488 49.3508 79.3246 48.9394 79.3246 48.4866C79.3246 48.0228 79.4488 47.6086 79.6973 47.2441C79.9458 46.8742 80.2965 46.5815 80.7493 46.3661C81.1966 46.1508 81.7239 46.0431 82.3314 46.0431C82.9333 46.0431 83.4606 46.1508 83.9135 46.3661C84.3608 46.5815 84.7086 46.8714 84.9571 47.2359C85.2001 47.6003 85.3216 48.009 85.3216 48.4618ZM84.3028 48.4783C84.3028 48.2133 84.2282 47.9841 84.0791 47.7908C83.93 47.5976 83.7091 47.4485 83.4165 47.3435C83.1238 47.2331 82.7593 47.1779 82.3231 47.1779C81.8868 47.1779 81.5224 47.2331 81.2297 47.3435C80.937 47.4485 80.7189 47.6003 80.5753 47.7991C80.4262 47.9924 80.3517 48.2216 80.3517 48.4866C80.3517 48.7462 80.4262 48.9726 80.5753 49.1658C80.7189 49.3591 80.937 49.511 81.2297 49.6214C81.5169 49.7263 81.8786 49.7788 82.3148 49.7788C82.7566 49.7788 83.1238 49.7263 83.4165 49.6214C83.7091 49.511 83.93 49.3591 84.0791 49.1658C84.2282 48.9726 84.3028 48.7434 84.3028 48.4783ZM85.3216 42.9936C85.3216 43.4519 85.1974 43.8661 84.9489 44.2361C84.7004 44.606 84.3497 44.9015 83.8969 45.1224C83.4441 45.3377 82.9167 45.4454 82.3148 45.4454C81.7129 45.4454 81.1883 45.3377 80.741 45.1224C80.2937 44.907 79.9458 44.6171 79.6973 44.2526C79.4488 43.8826 79.3246 43.4712 79.3246 43.0184C79.3246 42.5546 79.4488 42.1404 79.6973 41.776C79.9458 41.406 80.2965 41.1133 80.7493 40.8979C81.1966 40.6826 81.7239 40.5749 82.3314 40.5749C82.9333 40.5749 83.4606 40.6826 83.9135 40.8979C84.3608 41.1133 84.7086 41.4032 84.9571 41.7677C85.2001 42.1321 85.3216 42.5408 85.3216 42.9936ZM84.3028 43.0101C84.3028 42.7451 84.2282 42.5159 84.0791 42.3226C83.93 42.1294 83.7091 41.9803 83.4165 41.8754C83.1238 41.7649 82.7593 41.7097 82.3231 41.7097C81.8868 41.7097 81.5224 41.7649 81.2297 41.8754C80.937 41.9803 80.7189 42.1321 80.5753 42.3309C80.4262 42.5242 80.3517 42.7534 80.3517 43.0184C80.3517 43.278 80.4262 43.5044 80.5753 43.6977C80.7189 43.8909 80.937 44.0428 81.2297 44.1532C81.5169 44.2581 81.8786 44.3106 82.3148 44.3106C82.7566 44.3106 83.1238 44.2581 83.4165 44.1532C83.7091 44.0428 83.93 43.8909 84.0791 43.6977C84.2282 43.5044 84.3028 43.2752 84.3028 43.0101ZM85.3216 37.5254C85.3216 37.9837 85.1974 38.3979 84.9489 38.7679C84.7004 39.1378 84.3497 39.4333 83.8969 39.6542C83.4441 39.8695 82.9167 39.9772 82.3148 39.9772C81.7129 39.9772 81.1883 39.8695 80.741 39.6542C80.2937 39.4388 79.9458 39.1489 79.6973 38.7844C79.4488 38.4144 79.3246 38.003 79.3246 37.5502C79.3246 37.0864 79.4488 36.6722 79.6973 36.3078C79.9458 35.9378 80.2965 35.6451 80.7493 35.4297C81.1966 35.2144 81.7239 35.1067 82.3314 35.1067C82.9333 35.1067 83.4606 35.2144 83.9135 35.4297C84.3608 35.6451 84.7086 35.935 84.9571 36.2995C85.2001 36.6639 85.3216 37.0726 85.3216 37.5254ZM84.3028 37.5419C84.3028 37.2769 84.2282 37.0477 84.0791 36.8544C83.93 36.6612 83.7091 36.5121 83.4165 36.4072C83.1238 36.2967 82.7593 36.2415 82.3231 36.2415C81.8868 36.2415 81.5224 36.2967 81.2297 36.4072C80.937 36.5121 80.7189 36.6639 80.5753 36.8627C80.4262 37.056 80.3517 37.2852 80.3517 37.5502C80.3517 37.8098 80.4262 38.0362 80.5753 38.2295C80.7189 38.4227 80.937 38.5746 81.2297 38.685C81.5169 38.7899 81.8786 38.8424 82.3148 38.8424C82.7566 38.8424 83.1238 38.7899 83.4165 38.685C83.7091 38.5746 83.93 38.4227 84.0791 38.2295C84.2282 38.0362 84.3028 37.807 84.3028 37.5419Z" fill="#202024"/>
<path d="M38.0828 107.25C38.0828 107.708 37.9586 108.122 37.7101 108.492C37.4616 108.862 37.1109 109.158 36.6581 109.379C36.2053 109.594 35.6779 109.702 35.076 109.702C34.4741 109.702 33.9495 109.594 33.5022 109.379C33.0549 109.163 32.707 108.873 32.4585 108.509C32.2101 108.139 32.0858 107.728 32.0858 107.275C32.0858 106.811 32.2101 106.397 32.4585 106.032C32.707 105.662 33.0577 105.37 33.5105 105.154C33.9578 104.939 34.4852 104.831 35.0926 104.831C35.6945 104.831 36.2219 104.939 36.6747 105.154C37.122 105.37 37.4699 105.66 37.7184 106.024C37.9613 106.389 38.0828 106.797 38.0828 107.25ZM37.064 107.267C37.064 107.001 36.9895 106.772 36.8404 106.579C36.6913 106.386 36.4704 106.237 36.1777 106.132C35.885 106.021 35.5206 105.966 35.0843 105.966C34.6481 105.966 34.2836 106.021 33.9909 106.132C33.6983 106.237 33.4801 106.389 33.3366 106.587C33.1875 106.781 33.1129 107.01 33.1129 107.275C33.1129 107.534 33.1875 107.761 33.3366 107.954C33.4801 108.147 33.6983 108.299 33.9909 108.41C34.2781 108.515 34.6398 108.567 35.076 108.567C35.5178 108.567 35.885 108.515 36.1777 108.41C36.4704 108.299 36.6913 108.147 36.8404 107.954C36.9895 107.761 37.064 107.532 37.064 107.267ZM38.0828 101.782C38.0828 102.24 37.9586 102.654 37.7101 103.024C37.4616 103.394 37.1109 103.69 36.6581 103.911C36.2053 104.126 35.6779 104.234 35.076 104.234C34.4741 104.234 33.9495 104.126 33.5022 103.911C33.0549 103.695 32.707 103.405 32.4585 103.041C32.2101 102.671 32.0858 102.259 32.0858 101.807C32.0858 101.343 32.2101 100.929 32.4585 100.564C32.707 100.194 33.0577 99.9015 33.5105 99.6861C33.9578 99.4708 34.4852 99.3631 35.0926 99.3631C35.6945 99.3631 36.2219 99.4708 36.6747 99.6861C37.122 99.9015 37.4699 100.191 37.7184 100.556C37.9613 100.92 38.0828 101.329 38.0828 101.782ZM37.064 101.798C37.064 101.533 36.9895 101.304 36.8404 101.111C36.6913 100.918 36.4704 100.768 36.1777 100.664C35.885 100.553 35.5206 100.498 35.0843 100.498C34.6481 100.498 34.2836 100.553 33.9909 100.664C33.6983 100.768 33.4801 100.92 33.3366 101.119C33.1875 101.312 33.1129 101.542 33.1129 101.807C33.1129 102.066 33.1875 102.293 33.3366 102.486C33.4801 102.679 33.6983 102.831 33.9909 102.941C34.2781 103.046 34.6398 103.099 35.076 103.099C35.5178 103.099 35.885 103.046 36.1777 102.941C36.4704 102.831 36.6913 102.679 36.8404 102.486C36.9895 102.293 37.064 102.063 37.064 101.798ZM38.0828 96.3136C38.0828 96.7719 37.9586 97.1861 37.7101 97.5561C37.4616 97.926 37.1109 98.2215 36.6581 98.4424C36.2053 98.6577 35.6779 98.7654 35.076 98.7654C34.4741 98.7654 33.9495 98.6577 33.5022 98.4424C33.0549 98.227 32.707 97.9371 32.4585 97.5726C32.2101 97.2027 32.0858 96.7913 32.0858 96.3384C32.0858 95.8746 32.2101 95.4604 32.4585 95.096C32.707 94.726 33.0577 94.4333 33.5105 94.2179C33.9578 94.0026 34.4852 93.8949 35.0926 93.8949C35.6945 93.8949 36.2219 94.0026 36.6747 94.2179C37.122 94.4333 37.4699 94.7232 37.7184 95.0877C37.9613 95.4521 38.0828 95.8608 38.0828 96.3136ZM37.064 96.3302C37.064 96.0651 36.9895 95.8359 36.8404 95.6427C36.6913 95.4494 36.4704 95.3003 36.1777 95.1954C35.885 95.0849 35.5206 95.0297 35.0843 95.0297C34.6481 95.0297 34.2836 95.0849 33.9909 95.1954C33.6983 95.3003 33.4801 95.4521 33.3366 95.6509C33.1875 95.8442 33.1129 96.0734 33.1129 96.3384C33.1129 96.598 33.1875 96.8244 33.3366 97.0177C33.4801 97.2109 33.6983 97.3628 33.9909 97.4732C34.2781 97.5782 34.6398 97.6306 35.076 97.6306C35.5178 97.6306 35.885 97.5782 36.1777 97.4732C36.4704 97.3628 36.6913 97.2109 36.8404 97.0177C36.9895 96.8244 37.064 96.5952 37.064 96.3302ZM38.0828 90.8454C38.0828 91.3037 37.9586 91.7179 37.7101 92.0879C37.4616 92.4579 37.1109 92.7533 36.6581 92.9742C36.2053 93.1895 35.6779 93.2972 35.076 93.2972C34.4741 93.2972 33.9495 93.1895 33.5022 92.9742C33.0549 92.7588 32.707 92.4689 32.4585 92.1044C32.2101 91.7345 32.0858 91.3231 32.0858 90.8702C32.0858 90.4064 32.2101 89.9922 32.4585 89.6278C32.707 89.2578 33.0577 88.9651 33.5105 88.7497C33.9578 88.5344 34.4852 88.4267 35.0926 88.4267C35.6945 88.4267 36.2219 88.5344 36.6747 88.7497C37.122 88.9651 37.4699 89.255 37.7184 89.6195C37.9613 89.9839 38.0828 90.3926 38.0828 90.8454ZM37.064 90.862C37.064 90.5969 36.9895 90.3677 36.8404 90.1745C36.6913 89.9812 36.4704 89.8321 36.1777 89.7272C35.885 89.6167 35.5206 89.5615 35.0843 89.5615C34.6481 89.5615 34.2836 89.6167 33.9909 89.7272C33.6983 89.8321 33.4801 89.9839 33.3366 90.1827C33.1875 90.376 33.1129 90.6052 33.1129 90.8702C33.1129 91.1298 33.1875 91.3562 33.3366 91.5495C33.4801 91.7427 33.6983 91.8946 33.9909 92.005C34.2781 92.11 34.6398 92.1624 35.076 92.1624C35.5178 92.1624 35.885 92.11 36.1777 92.005C36.4704 91.8946 36.6913 91.7427 36.8404 91.5495C36.9895 91.3562 37.064 91.127 37.064 90.862ZM38.0828 82.5889C38.0828 83.003 38.011 83.362 37.8675 83.6657C37.7239 83.9639 37.5223 84.1986 37.2628 84.3698C37.0033 84.5354 36.7106 84.6182 36.3848 84.6182C36.1142 84.6182 35.8685 84.5658 35.6476 84.4609C35.4267 84.3559 35.2417 84.2069 35.0926 84.0136C34.938 83.8148 34.8303 83.5829 34.7696 83.3178L35.0429 83.3426C34.9877 83.5635 34.891 83.7513 34.753 83.9059C34.6149 84.0605 34.452 84.1765 34.2643 84.2538C34.071 84.3311 33.8722 84.3698 33.6679 84.3698C33.3531 84.3698 33.077 84.2952 32.8396 84.1461C32.6021 83.9915 32.4171 83.7816 32.2846 83.5166C32.1521 83.246 32.0858 82.9368 32.0858 82.5889C32.0858 82.241 32.1521 81.9345 32.2846 81.6694C32.4171 81.4044 32.6021 81.1973 32.8396 81.0482C33.077 80.8936 33.3531 80.8163 33.6679 80.8163C33.8722 80.8163 34.071 80.8549 34.2643 80.9322C34.452 81.0095 34.6149 81.1255 34.753 81.2801C34.891 81.4292 34.9877 81.617 35.0429 81.8434L34.7696 81.8682C34.8303 81.5976 34.938 81.3657 35.0926 81.1724C35.2417 80.9792 35.4267 80.8301 35.6476 80.7252C35.8685 80.6202 36.1142 80.5678 36.3848 80.5678C36.7106 80.5678 37.0033 80.6506 37.2628 80.8163C37.5223 80.9819 37.7239 81.2166 37.8675 81.5203C38.011 81.8241 38.0828 82.1802 38.0828 82.5889ZM37.0971 82.5889C37.0971 82.4066 37.0612 82.2437 36.9895 82.1002C36.9121 81.9566 36.8072 81.8461 36.6747 81.7688C36.5422 81.686 36.3931 81.6446 36.2274 81.6446C36.0562 81.6446 35.9071 81.686 35.7801 81.7688C35.6476 81.8461 35.5454 81.9566 35.4736 82.1002C35.3963 82.2437 35.3577 82.4066 35.3577 82.5889C35.3577 82.7766 35.3963 82.9423 35.4736 83.0859C35.5454 83.2239 35.6476 83.3344 35.7801 83.4172C35.9071 83.5 36.0562 83.5414 36.2274 83.5414C36.3931 83.5414 36.5422 83.5 36.6747 83.4172C36.8072 83.3344 36.9121 83.2239 36.9895 83.0859C37.0612 82.9423 37.0971 82.7766 37.0971 82.5889ZM34.5045 82.5889C34.5045 82.3735 34.4355 82.1968 34.2974 82.0587C34.1594 81.9207 33.9827 81.8517 33.7673 81.8517C33.5464 81.8517 33.3669 81.9207 33.2289 82.0587C33.0908 82.1968 33.0218 82.3735 33.0218 82.5889C33.0218 82.8042 33.0908 82.9837 33.2289 83.1273C33.3669 83.2653 33.5436 83.3344 33.759 83.3344C33.9799 83.3344 34.1594 83.2653 34.2974 83.1273C34.4355 82.9837 34.5045 82.8042 34.5045 82.5889ZM38 79.3348L35.5316 77.5622L35.4074 77.1563C35.5344 77.2226 35.6476 77.2999 35.747 77.3883C35.8408 77.4711 35.9126 77.5788 35.9623 77.7113C36.012 77.8438 36.0369 78.0178 36.0369 78.2331C36.0369 78.5755 35.9568 78.8903 35.7967 79.1774C35.631 79.4591 35.4046 79.6855 35.1175 79.8566C34.8303 80.0278 34.5017 80.1134 34.1318 80.1134C33.7562 80.1134 33.4139 80.0195 33.1046 79.8318C32.7899 79.644 32.5414 79.39 32.3591 79.0697C32.1769 78.7495 32.0858 78.3933 32.0858 78.0012C32.0858 77.6036 32.1769 77.2474 32.3591 76.9327C32.5414 76.6124 32.7844 76.3611 33.0881 76.1789C33.3918 75.9912 33.7314 75.8973 34.1069 75.8973C34.6205 75.8973 35.1395 76.0768 35.6641 76.4357L38 78.0509V79.3348ZM35.1754 78.0012C35.1754 77.8079 35.1313 77.6368 35.0429 77.4877C34.9545 77.3386 34.8331 77.2226 34.6784 77.1398C34.5183 77.0514 34.3416 77.0072 34.1483 77.0072C33.944 77.0072 33.7645 77.0514 33.6099 77.1398C33.4553 77.2226 33.3338 77.3386 33.2455 77.4877C33.1516 77.6368 33.1046 77.8079 33.1046 78.0012C33.1046 78.1945 33.1516 78.3684 33.2455 78.5231C33.3338 78.6722 33.4553 78.7909 33.6099 78.8792C33.7645 78.9621 33.944 79.0035 34.1483 79.0035C34.3471 79.0035 34.5238 78.9621 34.6784 78.8792C34.8331 78.7909 34.9545 78.6694 35.0429 78.5148C35.1313 78.3602 35.1754 78.189 35.1754 78.0012ZM38.0828 72.8958C38.0828 73.3541 37.9586 73.7683 37.7101 74.1383C37.4616 74.5083 37.1109 74.8037 36.6581 75.0246C36.2053 75.2399 35.6779 75.3476 35.076 75.3476C34.4741 75.3476 33.9495 75.2399 33.5022 75.0246C33.0549 74.8092 32.707 74.5193 32.4585 74.1548C32.2101 73.7849 32.0858 73.3735 32.0858 72.9206C32.0858 72.4568 32.2101 72.0426 32.4585 71.6782C32.707 71.3082 33.0577 71.0155 33.5105 70.8001C33.9578 70.5848 34.4852 70.4771 35.0926 70.4771C35.6945 70.4771 36.2219 70.5848 36.6747 70.8001C37.122 71.0155 37.4699 71.3054 37.7184 71.6699C37.9613 72.0343 38.0828 72.443 38.0828 72.8958ZM37.064 72.9124C37.064 72.6473 36.9895 72.4181 36.8404 72.2249C36.6913 72.0316 36.4704 71.8825 36.1777 71.7776C35.885 71.6671 35.5206 71.6119 35.0843 71.6119C34.6481 71.6119 34.2836 71.6671 33.9909 71.7776C33.6983 71.8825 33.4801 72.0343 33.3366 72.2331C33.1875 72.4264 33.1129 72.6556 33.1129 72.9206C33.1129 73.1802 33.1875 73.4066 33.3366 73.5999C33.4801 73.7931 33.6983 73.945 33.9909 74.0554C34.2781 74.1604 34.6398 74.2128 35.076 74.2128C35.5178 74.2128 35.885 74.1604 36.1777 74.0554C36.4704 73.945 36.6913 73.7931 36.8404 73.5999C36.9895 73.4066 37.064 73.1774 37.064 72.9124ZM38.0828 67.4276C38.0828 67.8859 37.9586 68.3001 37.7101 68.6701C37.4616 69.0401 37.1109 69.3355 36.6581 69.5564C36.2053 69.7717 35.6779 69.8794 35.076 69.8794C34.4741 69.8794 33.9495 69.7717 33.5022 69.5564C33.0549 69.341 32.707 69.0511 32.4585 68.6866C32.2101 68.3167 32.0858 67.9053 32.0858 67.4524C32.0858 66.9886 32.2101 66.5744 32.4585 66.21C32.707 65.84 33.0577 65.5473 33.5105 65.3319C33.9578 65.1166 34.4852 65.0089 35.0926 65.0089C35.6945 65.0089 36.2219 65.1166 36.6747 65.3319C37.122 65.5473 37.4699 65.8372 37.7184 66.2017C37.9613 66.5661 38.0828 66.9748 38.0828 67.4276ZM37.064 67.4442C37.064 67.1791 36.9895 66.9499 36.8404 66.7567C36.6913 66.5634 36.4704 66.4143 36.1777 66.3094C35.885 66.1989 35.5206 66.1437 35.0843 66.1437C34.6481 66.1437 34.2836 66.1989 33.9909 66.3094C33.6983 66.4143 33.4801 66.5661 33.3366 66.7649C33.1875 66.9582 33.1129 67.1874 33.1129 67.4524C33.1129 67.712 33.1875 67.9384 33.3366 68.1317C33.4801 68.3249 33.6983 68.4768 33.9909 68.5872C34.2781 68.6922 34.6398 68.7446 35.076 68.7446C35.5178 68.7446 35.885 68.6922 36.1777 68.5872C36.4704 68.4768 36.6913 68.3249 36.8404 68.1317C36.9895 67.9384 37.064 67.7092 37.064 67.4442ZM38.0828 58.7238C38.0828 59.1821 37.9586 59.5963 37.7101 59.9663C37.4616 60.3362 37.1109 60.6317 36.6581 60.8526C36.2053 61.0679 35.6779 61.1756 35.076 61.1756C34.4741 61.1756 33.9495 61.0679 33.5022 60.8526C33.0549 60.6372 32.707 60.3473 32.4585 59.9828C32.2101 59.6128 32.0858 59.2014 32.0858 58.7486C32.0858 58.2848 32.2101 57.8706 32.4585 57.5062C32.707 57.1362 33.0577 56.8435 33.5105 56.6281C33.9578 56.4128 34.4852 56.3051 35.0926 56.3051C35.6945 56.3051 36.2219 56.4128 36.6747 56.6281C37.122 56.8435 37.4699 57.1334 37.7184 57.4979C37.9613 57.8623 38.0828 58.271 38.0828 58.7238ZM37.064 58.7403C37.064 58.4753 36.9895 58.2461 36.8404 58.0528C36.6913 57.8596 36.4704 57.7105 36.1777 57.6055C35.885 57.4951 35.5206 57.4399 35.0843 57.4399C34.6481 57.4399 34.2836 57.4951 33.9909 57.6055C33.6983 57.7105 33.4801 57.8623 33.3366 58.0611C33.1875 58.2544 33.1129 58.4836 33.1129 58.7486C33.1129 59.0082 33.1875 59.2346 33.3366 59.4278C33.4801 59.6211 33.6983 59.773 33.9909 59.8834C34.2781 59.9883 34.6398 60.0408 35.076 60.0408C35.5178 60.0408 35.885 59.9883 36.1777 59.8834C36.4704 59.773 36.6913 59.6211 36.8404 59.4278C36.9895 59.2346 37.064 59.0054 37.064 58.7403ZM38.0828 53.2556C38.0828 53.7139 37.9586 54.1281 37.7101 54.4981C37.4616 54.868 37.1109 55.1635 36.6581 55.3844C36.2053 55.5997 35.6779 55.7074 35.076 55.7074C34.4741 55.7074 33.9495 55.5997 33.5022 55.3844C33.0549 55.169 32.707 54.8791 32.4585 54.5146C32.2101 54.1446 32.0858 53.7332 32.0858 53.2804C32.0858 52.8166 32.2101 52.4024 32.4585 52.038C32.707 51.668 33.0577 51.3753 33.5105 51.1599C33.9578 50.9446 34.4852 50.8369 35.0926 50.8369C35.6945 50.8369 36.2219 50.9446 36.6747 51.1599C37.122 51.3753 37.4699 51.6652 37.7184 52.0297C37.9613 52.3941 38.0828 52.8028 38.0828 53.2556ZM37.064 53.2721C37.064 53.0071 36.9895 52.7779 36.8404 52.5846C36.6913 52.3914 36.4704 52.2423 36.1777 52.1374C35.885 52.0269 35.5206 51.9717 35.0843 51.9717C34.6481 51.9717 34.2836 52.0269 33.9909 52.1374C33.6983 52.2423 33.4801 52.3941 33.3366 52.5929C33.1875 52.7862 33.1129 53.0154 33.1129 53.2804C33.1129 53.54 33.1875 53.7664 33.3366 53.9597C33.4801 54.1529 33.6983 54.3048 33.9909 54.4152C34.2781 54.5201 34.6398 54.5726 35.076 54.5726C35.5178 54.5726 35.885 54.5201 36.1777 54.4152C36.4704 54.3048 36.6913 54.1529 36.8404 53.9597C36.9895 53.7664 37.064 53.5372 37.064 53.2721ZM38.0828 47.7874C38.0828 48.2457 37.9586 48.6599 37.7101 49.0299C37.4616 49.3998 37.1109 49.6953 36.6581 49.9162C36.2053 50.1315 35.6779 50.2392 35.076 50.2392C34.4741 50.2392 33.9495 50.1315 33.5022 49.9162C33.0549 49.7008 32.707 49.4109 32.4585 49.0464C32.2101 48.6764 32.0858 48.265 32.0858 47.8122C32.0858 47.3484 32.2101 46.9342 32.4585 46.5698C32.707 46.1998 33.0577 45.9071 33.5105 45.6917C33.9578 45.4764 34.4852 45.3687 35.0926 45.3687C35.6945 45.3687 36.2219 45.4764 36.6747 45.6917C37.122 45.9071 37.4699 46.197 37.7184 46.5615C37.9613 46.9259 38.0828 47.3346 38.0828 47.7874ZM37.064 47.804C37.064 47.5389 36.9895 47.3097 36.8404 47.1164C36.6913 46.9232 36.4704 46.7741 36.1777 46.6692C35.885 46.5587 35.5206 46.5035 35.0843 46.5035C34.6481 46.5035 34.2836 46.5587 33.9909 46.6692C33.6983 46.7741 33.4801 46.9259 33.3366 47.1247C33.1875 47.318 33.1129 47.5472 33.1129 47.8122C33.1129 48.0718 33.1875 48.2982 33.3366 48.4915C33.4801 48.6847 33.6983 48.8366 33.9909 48.947C34.2781 49.052 34.6398 49.1044 35.076 49.1044C35.5178 49.1044 35.885 49.052 36.1777 48.947C36.4704 48.8366 36.6913 48.6847 36.8404 48.4915C36.9895 48.2982 37.064 48.069 37.064 47.804ZM38.0828 42.3192C38.0828 42.7775 37.9586 43.1917 37.7101 43.5617C37.4616 43.9316 37.1109 44.2271 36.6581 44.448C36.2053 44.6633 35.6779 44.771 35.076 44.771C34.4741 44.771 33.9495 44.6633 33.5022 44.448C33.0549 44.2326 32.707 43.9427 32.4585 43.5782C32.2101 43.2083 32.0858 42.7969 32.0858 42.344C32.0858 41.8802 32.2101 41.466 32.4585 41.1016C32.707 40.7316 33.0577 40.4389 33.5105 40.2235C33.9578 40.0082 34.4852 39.9005 35.0926 39.9005C35.6945 39.9005 36.2219 40.0082 36.6747 40.2235C37.122 40.4389 37.4699 40.7288 37.7184 41.0933C37.9613 41.4577 38.0828 41.8664 38.0828 42.3192ZM37.064 42.3358C37.064 42.0707 36.9895 41.8415 36.8404 41.6483C36.6913 41.455 36.4704 41.3059 36.1777 41.201C35.885 41.0905 35.5206 41.0353 35.0843 41.0353C34.6481 41.0353 34.2836 41.0905 33.9909 41.201C33.6983 41.3059 33.4801 41.4577 33.3366 41.6565C33.1875 41.8498 33.1129 42.079 33.1129 42.344C33.1129 42.6036 33.1875 42.83 33.3366 43.0233C33.4801 43.2165 33.6983 43.3684 33.9909 43.4788C34.2781 43.5838 34.6398 43.6362 35.076 43.6362C35.5178 43.6362 35.885 43.5838 36.1777 43.4788C36.4704 43.3684 36.6913 43.2165 36.8404 43.0233C36.9895 42.83 37.064 42.6008 37.064 42.3358ZM38.0828 34.2946C38.0828 34.6977 38.0138 35.0649 37.8758 35.3963C37.7322 35.7276 37.5279 36.0037 37.2628 36.2246L36.5256 35.4791C36.6913 35.3686 36.8238 35.2113 36.9232 35.0069C37.0226 34.7971 37.0723 34.5679 37.0723 34.3194C37.0723 34.093 37.0309 33.897 36.948 33.7313C36.8652 33.5601 36.7492 33.4276 36.6001 33.3337C36.4455 33.2343 36.2661 33.1846 36.0617 33.1846C35.8464 33.1846 35.6641 33.2343 35.515 33.3337C35.3659 33.4276 35.2527 33.5546 35.1754 33.7148C35.0981 33.8749 35.0595 34.0544 35.0595 34.2532C35.0595 34.463 35.0871 34.6535 35.1423 34.8247C35.192 34.9904 35.2748 35.1505 35.3908 35.3051L34.6784 35.2389C34.568 35.134 34.4796 35.0235 34.4134 34.9075C34.3416 34.7916 34.2891 34.6618 34.256 34.5182C34.2173 34.3691 34.198 34.1952 34.198 33.9964C34.198 33.5712 34.2864 33.2178 34.4631 32.9361C34.6343 32.649 34.8662 32.4309 35.1589 32.2818C35.446 32.1327 35.7635 32.0581 36.1114 32.0581C36.4925 32.0581 36.8321 32.152 37.1303 32.3398C37.4285 32.5275 37.6632 32.7898 37.8343 33.1267C38 33.458 38.0828 33.8473 38.0828 34.2946ZM35.3908 35.3051L34.8607 35.8435L32.1769 35.5785V34.5597L34.9021 34.8578L35.3908 35.3051ZM33.1543 35.4045L32.1769 35.5785V32.3812H33.1543V35.4045ZM38.0828 29.037C38.0828 29.4953 37.9586 29.9095 37.7101 30.2794C37.4616 30.6494 37.1109 30.9449 36.6581 31.1657C36.2053 31.3811 35.6779 31.4888 35.076 31.4888C34.4741 31.4888 33.9495 31.3811 33.5022 31.1657C33.0549 30.9504 32.707 30.6605 32.4585 30.296C32.2101 29.926 32.0858 29.5146 32.0858 29.0618C32.0858 28.598 32.2101 28.1838 32.4585 27.8193C32.707 27.4494 33.0577 27.1567 33.5105 26.9413C33.9578 26.726 34.4852 26.6183 35.0926 26.6183C35.6945 26.6183 36.2219 26.726 36.6747 26.9413C37.122 27.1567 37.4699 27.4466 37.7184 27.8111C37.9613 28.1755 38.0828 28.5842 38.0828 29.037ZM37.064 29.0535C37.064 28.7885 36.9895 28.5593 36.8404 28.366C36.6913 28.1728 36.4704 28.0237 36.1777 27.9187C35.885 27.8083 35.5206 27.7531 35.0843 27.7531C34.6481 27.7531 34.2836 27.8083 33.9909 27.9187C33.6983 28.0237 33.4801 28.1755 33.3366 28.3743C33.1875 28.5676 33.1129 28.7968 33.1129 29.0618C33.1129 29.3214 33.1875 29.5478 33.3366 29.741C33.4801 29.9343 33.6983 30.0862 33.9909 30.1966C34.2781 30.3015 34.6398 30.354 35.076 30.354C35.5178 30.354 35.885 30.3015 36.1777 30.1966C36.4704 30.0862 36.6913 29.9343 36.8404 29.741C36.9895 29.5478 37.064 29.3186 37.064 29.0535ZM38.0828 23.5688C38.0828 24.0271 37.9586 24.4413 37.7101 24.8113C37.4616 25.1812 37.1109 25.4767 36.6581 25.6976C36.2053 25.9129 35.6779 26.0206 35.076 26.0206C34.4741 26.0206 33.9495 25.9129 33.5022 25.6976C33.0549 25.4822 32.707 25.1923 32.4585 24.8278C32.2101 24.4578 32.0858 24.0464 32.0858 23.5936C32.0858 23.1298 32.2101 22.7156 32.4585 22.3511C32.707 21.9812 33.0577 21.6885 33.5105 21.4731C33.9578 21.2578 34.4852 21.1501 35.0926 21.1501C35.6945 21.1501 36.2219 21.2578 36.6747 21.4731C37.122 21.6885 37.4699 21.9784 37.7184 22.3429C37.9613 22.7073 38.0828 23.116 38.0828 23.5688ZM37.064 23.5853C37.064 23.3203 36.9895 23.0911 36.8404 22.8978C36.6913 22.7046 36.4704 22.5555 36.1777 22.4505C35.885 22.3401 35.5206 22.2849 35.0843 22.2849C34.6481 22.2849 34.2836 22.3401 33.9909 22.4505C33.6983 22.5555 33.4801 22.7073 33.3366 22.9061C33.1875 23.0994 33.1129 23.3286 33.1129 23.5936C33.1129 23.8532 33.1875 24.0796 33.3366 24.2728C33.4801 24.4661 33.6983 24.618 33.9909 24.7284C34.2781 24.8333 34.6398 24.8858 35.076 24.8858C35.5178 24.8858 35.885 24.8333 36.1777 24.7284C36.4704 24.618 36.6913 24.4661 36.8404 24.2728C36.9895 24.0796 37.064 23.8504 37.064 23.5853ZM38.0828 18.1006C38.0828 18.5589 37.9586 18.9731 37.7101 19.3431C37.4616 19.713 37.1109 20.0085 36.6581 20.2294C36.2053 20.4447 35.6779 20.5524 35.076 20.5524C34.4741 20.5524 33.9495 20.4447 33.5022 20.2294C33.0549 20.014 32.707 19.7241 32.4585 19.3596C32.2101 18.9896 32.0858 18.5782 32.0858 18.1254C32.0858 17.6616 32.2101 17.2474 32.4585 16.8829C32.707 16.513 33.0577 16.2203 33.5105 16.0049C33.9578 15.7896 34.4852 15.6819 35.0926 15.6819C35.6945 15.6819 36.2219 15.7896 36.6747 16.0049C37.122 16.2203 37.4699 16.5102 37.7184 16.8747C37.9613 17.2391 38.0828 17.6478 38.0828 18.1006ZM37.064 18.1171C37.064 17.8521 36.9895 17.6229 36.8404 17.4296C36.6913 17.2364 36.4704 17.0873 36.1777 16.9823C35.885 16.8719 35.5206 16.8167 35.0843 16.8167C34.6481 16.8167 34.2836 16.8719 33.9909 16.9823C33.6983 17.0873 33.4801 17.2391 33.3366 17.4379C33.1875 17.6312 33.1129 17.8604 33.1129 18.1254C33.1129 18.385 33.1875 18.6114 33.3366 18.8046C33.4801 18.9979 33.6983 19.1498 33.9909 19.2602C34.2781 19.3651 34.6398 19.4176 35.076 19.4176C35.5178 19.4176 35.885 19.3651 36.1777 19.2602C36.4704 19.1498 36.6913 18.9979 36.8404 18.8046C36.9895 18.6114 37.064 18.3822 37.064 18.1171Z" fill="#202024"/>
<g filter="url(#filter1_f_827_1383)">
<circle cx="63.5046" cy="96.292" r="9.31858" fill="#1C4E80"/>
</g>
<g filter="url(#filter2_f_827_1383)">
<circle cx="89.9069" cy="96.1195" r="6.38496" fill="#1C4E80"/>
</g>
<path opacity="0.5" d="M113.991 54.1156L110.125 54.1205L110.124 53.4855L113.99 53.4805L113.991 54.1156ZM113.99 53.6793L113.41 53.6801L113.407 51.5154L113.987 51.5147L113.99 53.6793ZM112.295 53.6815L111.737 53.6822L111.735 51.7053L112.292 51.7046L112.295 53.6815ZM110.704 53.6835L110.125 53.6843L110.122 51.5472L110.702 51.5465L110.704 53.6835ZM113.984 49.2625L112.864 50.026L112.765 50.1366L111.336 51.1655L111.335 50.4311L112.317 49.7506L112.411 49.6455L113.983 48.5336L113.984 49.2625ZM113.987 51.2118L112.5 50.1424L112.936 49.7884L113.986 50.505L113.987 51.2118ZM112.753 49.5899L112.323 49.9494L111.334 49.288L111.333 48.5867L112.753 49.5899ZM114.036 46.7124C114.037 46.9148 113.995 47.0953 113.91 47.2537C113.822 47.4121 113.702 47.5374 113.552 47.6297C113.401 47.7182 113.23 47.7626 113.038 47.7629L112.276 47.7638C112.085 47.7641 111.913 47.7183 111.762 47.6264C111.611 47.5346 111.493 47.4096 111.409 47.2514C111.32 47.0932 111.276 46.9147 111.275 46.7159C111.275 46.4766 111.337 46.2612 111.462 46.0696C111.583 45.8743 111.749 45.7213 111.959 45.6106C112.165 45.4962 112.398 45.4389 112.66 45.4385C112.917 45.4382 113.151 45.495 113.361 45.6088C113.568 45.719 113.732 45.8716 113.853 46.0665C113.975 46.2578 114.036 46.4731 114.036 46.7124ZM115.087 48.1302L111.332 48.135L111.332 47.5276L112.044 47.5267L112.69 47.6308L113.331 47.525L115.087 47.5228L115.087 48.1302ZM113.462 46.8125C113.462 46.6652 113.429 46.5364 113.362 46.4261C113.292 46.312 113.196 46.2238 113.075 46.1614C112.953 46.0953 112.813 46.0623 112.655 46.0625C112.497 46.0627 112.357 46.096 112.235 46.1625C112.114 46.2252 112.02 46.3137 111.954 46.4279C111.884 46.5384 111.85 46.6673 111.85 46.8146C111.85 46.9618 111.885 47.0925 111.955 47.2065C112.022 47.3205 112.116 47.4088 112.237 47.4712C112.359 47.5336 112.499 47.5647 112.657 47.5645C112.815 47.5643 112.955 47.5329 113.076 47.4701C113.198 47.4074 113.294 47.3189 113.363 47.2047C113.429 47.0905 113.462 46.9598 113.462 46.8125ZM114.034 44.5197C114.034 44.6375 113.995 44.7351 113.918 44.8125C113.837 44.8862 113.74 44.9231 113.625 44.9233C113.508 44.9234 113.41 44.8868 113.333 44.8132C113.255 44.736 113.216 44.6385 113.216 44.5207C113.216 44.4029 113.255 44.3071 113.332 44.2334C113.409 44.156 113.507 44.1172 113.624 44.1171C113.739 44.1169 113.836 44.1554 113.917 44.2327C113.995 44.3062 114.033 44.4018 114.034 44.5197ZM112.327 44.5218C112.327 44.6397 112.289 44.7373 112.212 44.8147C112.131 44.8884 112.033 44.9253 111.919 44.9255C111.801 44.9256 111.704 44.8889 111.626 44.8154C111.549 44.7382 111.51 44.6407 111.51 44.5229C111.51 44.4051 111.548 44.3093 111.626 44.2356C111.703 44.1582 111.8 44.1194 111.918 44.1193C112.032 44.1191 112.13 44.1576 112.211 44.2348C112.288 44.3084 112.327 44.404 112.327 44.5218Z" fill="white"/>
<path d="M114.044 39.9485C114.044 40.2393 113.964 40.5063 113.802 40.7495C113.637 40.989 113.405 41.1808 113.107 41.3247C112.809 41.4687 112.458 41.5409 112.053 41.5414C111.648 41.542 111.298 41.4725 111.003 41.3329C110.705 41.1898 110.474 40.9986 110.312 40.7595C110.15 40.5205 110.069 40.2555 110.068 39.9647C110.068 39.6701 110.148 39.4031 110.31 39.1636C110.472 38.9241 110.702 38.7343 111 38.594C111.294 38.45 111.645 38.3778 112.054 38.3773C112.459 38.3767 112.811 38.4481 113.109 38.5913C113.407 38.7308 113.638 38.9201 113.8 39.1592C113.962 39.3946 114.044 39.6577 114.044 39.9485ZM113.448 39.9603C113.447 39.7689 113.396 39.6033 113.292 39.4635C113.189 39.3238 113.034 39.2154 112.828 39.1383C112.622 39.0576 112.362 39.0174 112.049 39.0178C111.74 39.0182 111.483 39.0591 111.276 39.1403C111.07 39.2179 110.918 39.3285 110.819 39.4722C110.716 39.6123 110.664 39.7761 110.665 39.9639C110.665 40.1516 110.717 40.3172 110.82 40.4607C110.919 40.6005 111.072 40.7089 111.279 40.7859C111.481 40.863 111.739 40.9013 112.052 40.9009C112.365 40.9005 112.624 40.8615 112.83 40.7839C113.036 40.7063 113.191 40.5975 113.294 40.4575C113.397 40.3138 113.448 40.1481 113.448 39.9603ZM113.986 37.3903L112.399 36.2603L112.261 36.0341C112.342 36.0708 112.414 36.1186 112.476 36.1774C112.539 36.2325 112.587 36.3061 112.62 36.3981C112.654 36.4901 112.67 36.6079 112.67 36.7514C112.671 36.9723 112.619 37.1749 112.517 37.3591C112.41 37.5433 112.263 37.6907 112.075 37.8014C111.888 37.9121 111.671 37.9676 111.424 37.9679C111.174 37.9682 110.945 37.9078 110.739 37.7866C110.533 37.6617 110.369 37.4962 110.247 37.2902C110.125 37.0842 110.064 36.8542 110.064 36.6002C110.064 36.3425 110.124 36.1105 110.245 35.9042C110.363 35.6978 110.523 35.5357 110.725 35.4176C110.924 35.2959 111.148 35.2348 111.398 35.2345C111.752 35.234 112.109 35.3569 112.47 35.6031L113.985 36.6559L113.986 37.3903ZM112.173 36.5975C112.173 36.4576 112.14 36.3325 112.073 36.2221C112.007 36.1117 111.917 36.0253 111.803 35.9629C111.688 35.9005 111.561 35.8693 111.421 35.8695C111.274 35.8697 111.143 35.9012 111.029 35.9639C110.915 36.0266 110.825 36.1133 110.759 36.2238C110.693 36.3343 110.66 36.4595 110.66 36.5994C110.66 36.7393 110.694 36.8644 110.76 36.9748C110.827 37.0851 110.917 37.1734 111.031 37.2395C111.145 37.3019 111.276 37.3331 111.423 37.3329C111.567 37.3327 111.696 37.3012 111.81 37.2385C111.92 37.1721 112.008 37.0836 112.074 36.9731C112.141 36.8589 112.173 36.7337 112.173 36.5975ZM114.203 34.9961L109.894 33.4554L109.893 32.8866L114.203 34.4273L114.203 34.9961ZM113.604 32.6755L112.089 31.2528C111.964 31.1351 111.851 31.0395 111.752 30.966C111.652 30.8925 111.558 30.8393 111.47 30.8063C111.382 30.7732 111.291 30.7568 111.199 30.7569C111.026 30.7571 110.892 30.8144 110.797 30.9286C110.697 31.0392 110.648 31.181 110.648 31.354C110.648 31.5381 110.694 31.7 110.787 31.8398C110.879 31.9796 111.023 32.1045 111.218 32.2147L110.854 32.657C110.592 32.5064 110.395 32.3207 110.262 32.1C110.126 31.8793 110.057 31.6235 110.057 31.3327C110.057 31.0934 110.104 30.8835 110.2 30.703C110.295 30.5225 110.43 30.3824 110.602 30.2828C110.772 30.1832 110.969 30.1332 111.193 30.1329C111.355 30.1327 111.501 30.1528 111.629 30.1931C111.755 30.2298 111.882 30.294 112.011 30.3859C112.136 30.4778 112.283 30.6046 112.453 30.7663L113.586 31.8583L113.604 32.6755ZM113.98 32.675L113.604 32.6755L113.41 32.1291L113.407 30.0528L113.976 30.052L113.98 32.675ZM114.029 28.4781C114.03 28.7468 113.984 28.9862 113.892 29.1961C113.797 29.4061 113.659 29.583 113.479 29.7268L113.047 29.2966C113.165 29.2191 113.259 29.1104 113.329 28.9704C113.398 28.8268 113.433 28.6666 113.433 28.4899C113.433 28.3279 113.403 28.1862 113.344 28.0648C113.285 27.9434 113.2 27.8478 113.09 27.778C112.979 27.7082 112.848 27.6734 112.697 27.6736C112.539 27.6738 112.409 27.7089 112.306 27.779C112.199 27.8454 112.12 27.9357 112.068 28.0499C112.013 28.1604 111.986 28.2801 111.986 28.4089C111.986 28.5562 112.003 28.6887 112.036 28.8064C112.07 28.9205 112.129 29.0327 112.213 29.1431L111.816 29.127C111.738 29.0682 111.676 29.0002 111.628 28.9229C111.576 28.8457 111.537 28.7555 111.511 28.6525C111.486 28.5494 111.473 28.428 111.472 28.2881C111.472 28.0157 111.529 27.7873 111.643 27.6031C111.757 27.4152 111.909 27.2733 112.1 27.1773C112.288 27.0814 112.498 27.0332 112.73 27.0329C112.98 27.0326 113.203 27.0949 113.398 27.2198C113.593 27.3411 113.748 27.5102 113.863 27.7273C113.973 27.9443 114.029 28.1946 114.029 28.4781ZM112.213 29.1431L111.866 29.4914L110.11 29.3225L110.109 28.7427L111.937 28.9391L112.213 29.1431ZM110.678 29.2113L110.11 29.3225L110.107 27.2517L110.676 27.2509L110.678 29.2113Z" fill="white"/>
</g>
<defs>
<filter id="filter0_f_827_1383" x="26.4715" y="13.0115" width="54.3929" height="54.3929" filterUnits="userSpaceOnUse" color-interpolation-filters="sRGB">
<feFlood flood-opacity="0" result="BackgroundImageFix"/>
<feBlend mode="normal" in="SourceGraphic" in2="BackgroundImageFix" result="shape"/>
<feGaussianBlur stdDeviation="10.0606" result="effect1_foregroundBlur_827_1383"/>
</filter>
<filter id="filter1_f_827_1383" x="34.0648" y="66.8522" width="58.8797" height="58.8796" filterUnits="userSpaceOnUse" color-interpolation-filters="sRGB">
<feFlood flood-opacity="0" result="BackgroundImageFix"/>
<feBlend mode="normal" in="SourceGraphic" in2="BackgroundImageFix" result="shape"/>
<feGaussianBlur stdDeviation="10.0606" result="effect1_foregroundBlur_827_1383"/>
</filter>
<filter id="filter2_f_827_1383" x="63.4007" y="69.6133" width="53.0125" height="53.0124" filterUnits="userSpaceOnUse" color-interpolation-filters="sRGB">
<feFlood flood-opacity="0" result="BackgroundImageFix"/>
<feBlend mode="normal" in="SourceGraphic" in2="BackgroundImageFix" result="shape"/>
<feGaussianBlur stdDeviation="10.0606" result="effect1_foregroundBlur_827_1383"/>
</filter>
<clipPath id="clip0_827_1383">
<rect width="122" height="92" fill="white"/>
</clipPath>
</defs>
</svg>
