<svg width="53" height="53" viewBox="0 0 53 53" fill="none" xmlns="http://www.w3.org/2000/svg">
<path d="M48.006 31.494C50.7641 19.6166 43.3714 7.75214 31.494 4.99403C19.6166 2.23591 7.75211 9.62859 4.994 21.506C2.23589 33.3835 9.62857 45.2479 21.506 48.006C33.3834 50.7641 45.2479 43.3715 48.006 31.494Z" fill="#627EEA"/>
<path d="M27.1841 9.94269V22.1823L37.529 26.8046L27.1841 9.94269Z" fill="white" fill-opacity="0.602"/>
<path d="M27.184 9.94269L16.8379 26.8046L27.184 22.1823V9.94269Z" fill="white"/>
<path d="M27.1841 34.7361V43.0525L37.5356 28.7311L27.1841 34.7361Z" fill="white" fill-opacity="0.602"/>
<path d="M27.184 43.0525V34.7349L16.8379 28.7305L27.184 43.0525Z" fill="white"/>
<path d="M27.1841 32.8109L37.529 26.8041L27.1841 22.1842V32.8109Z" fill="white" fill-opacity="0.2"/>
<path d="M16.8379 26.8047L27.184 32.8115V22.1848L16.8379 26.8047Z" fill="white" fill-opacity="0.602"/>
</svg>
