<svg width="33" height="33" viewBox="0 0 33 33" fill="none" xmlns="http://www.w3.org/2000/svg">
<g filter="url(#filter0_d_824_933)">
<circle cx="16.5" cy="16.5" r="11.5" fill="url(#paint0_linear_824_933)"/>
<circle cx="16.5" cy="16.5" r="11.5" fill="#00FFC2"/>
<g filter="url(#filter1_d_824_933)">
<path d="M14.7576 23.8372L14.635 23.4683L19.9978 19.8608C22.1769 16.5453 19.8776 13.8196 18.1586 14.328L13.8944 16.9722C12.8445 16.9474 13.0425 15.9762 13.2727 15.4937L19.296 11.7187L19.4186 12.0876L21.3249 9.20481L18.4334 9.31963L18.556 9.68848L12.5284 13.6463C10.2155 17.0684 12.7669 20.2393 14.4988 19.1822L18.365 16.7116C19.5548 16.3737 19.2578 17.8305 18.8555 18.187L13.895 21.4381L13.7724 21.0693L11.7349 23.9489L14.7576 23.8372Z" fill="#EA6A47"/>
<path d="M14.7576 23.8372L14.635 23.4683L19.9978 19.8608C22.1769 16.5453 19.8776 13.8196 18.1586 14.328L13.8944 16.9722C12.8445 16.9474 13.0425 15.9762 13.2727 15.4937L19.296 11.7187L19.4186 12.0876L21.3249 9.20481L18.4334 9.31963L18.556 9.68848L12.5284 13.6463C10.2155 17.0684 12.7669 20.2393 14.4988 19.1822L18.365 16.7116C19.5548 16.3737 19.2578 17.8305 18.8555 18.187L13.895 21.4381L13.7724 21.0693L11.7349 23.9489L14.7576 23.8372Z" fill="#08080C"/>
</g>
</g>
<defs>
<filter id="filter0_d_824_933" x="0.2" y="0.2" width="32.6" height="32.6" filterUnits="userSpaceOnUse" color-interpolation-filters="sRGB">
<feFlood flood-opacity="0" result="BackgroundImageFix"/>
<feColorMatrix in="SourceAlpha" type="matrix" values="0 0 0 0 0 0 0 0 0 0 0 0 0 0 0 0 0 0 127 0" result="hardAlpha"/>
<feOffset/>
<feGaussianBlur stdDeviation="2.4"/>
<feComposite in2="hardAlpha" operator="out"/>
<feColorMatrix type="matrix" values="0 0 0 0 0 0 0 0 0 0 0 0 0 0 0 0 0 0 0.18 0"/>
<feBlend mode="normal" in2="BackgroundImageFix" result="effect1_dropShadow_824_933"/>
<feBlend mode="normal" in="SourceGraphic" in2="effect1_dropShadow_824_933" result="shape"/>
</filter>
<filter id="filter1_d_824_933" x="11.1845" y="9.2048" width="10.5602" height="15.6141" filterUnits="userSpaceOnUse" color-interpolation-filters="sRGB">
<feFlood flood-opacity="0" result="BackgroundImageFix"/>
<feColorMatrix in="SourceAlpha" type="matrix" values="0 0 0 0 0 0 0 0 0 0 0 0 0 0 0 0 0 0 127 0" result="hardAlpha"/>
<feOffset dy="0.45"/>
<feGaussianBlur stdDeviation="0.21"/>
<feComposite in2="hardAlpha" operator="out"/>
<feColorMatrix type="matrix" values="0 0 0 0 0 0 0 0 0 0 0 0 0 0 0 0 0 0 0.1 0"/>
<feBlend mode="normal" in2="BackgroundImageFix" result="effect1_dropShadow_824_933"/>
<feBlend mode="normal" in="SourceGraphic" in2="effect1_dropShadow_824_933" result="shape"/>
</filter>
<linearGradient id="paint0_linear_824_933" x1="5.4326" y1="15.3211" x2="52.1377" y2="16.0203" gradientUnits="userSpaceOnUse">
<stop stop-color="#1C4E80"/>
<stop offset="0.60401" stop-color="#DF684A"/>
<stop offset="1" stop-color="#EA6A47"/>
</linearGradient>
</defs>
</svg>
